<?xml version="1.0" standalone="no"?>
<!DOCTYPE svg PUBLIC "-//W3C//DTD SVG 20010904//EN"
 "http://www.w3.org/TR/2001/REC-SVG-20010904/DTD/svg10.dtd">
<svg version="1.0" xmlns="http://www.w3.org/2000/svg"
 width="240.000000pt" height="240.000000pt" viewBox="0 0 240.000000 240.000000"
 preserveAspectRatio="xMidYMid meet">

<g transform="translate(0.000000,240.000000) scale(0.100000,-0.100000)"
fill="#000000" stroke="none">
<path d="M63 2235 c-26 -18 -32 -72 -11 -93 7 -7 44 -12 94 -12 107 0 142 -8
161 -36 8 -13 71 -296 139 -629 68 -332 131 -619 140 -637 23 -46 72 -96 119
-121 40 -22 45 -22 708 -25 l667 -3 25 25 c30 30 31 46 6 77 l-19 24 -664 5
c-492 4 -668 8 -684 17 -12 7 -29 24 -38 38 -18 28 -58 193 -50 207 3 4 308 8
678 8 l672 0 52 26 c57 28 95 68 123 129 24 51 189 713 189 758 0 46 -38 99
-80 114 -26 9 -268 12 -947 12 -580 1 -913 5 -913 11 0 16 -62 80 -94 97 -47
25 -243 30 -273 8z m2183 -262 c-3 -10 -42 -164 -86 -343 -45 -179 -88 -339
-97 -357 -8 -18 -30 -42 -48 -53 -32 -20 -48 -20 -714 -20 -374 0 -681 3 -681
8 -1 4 -36 181 -79 395 l-78 387 894 0 c847 0 894 -1 889 -17z"/>
<path d="M748 595 c-95 -35 -151 -115 -151 -214 0 -169 173 -272 324 -193 74
38 111 93 117 171 8 105 -38 183 -133 227 -56 27 -102 29 -157 9z m123 -125
c30 -17 52 -68 45 -106 -8 -39 -57 -84 -92 -84 -58 0 -103 46 -104 103 0 73
85 122 151 87z"/>
<path d="M1811 600 c-54 -13 -112 -61 -140 -115 -76 -147 29 -325 192 -325 90
0 153 36 197 113 52 90 39 184 -35 266 -53 58 -131 81 -214 61z m110 -130 c30
-17 52 -68 45 -106 -8 -39 -57 -84 -92 -84 -58 0 -103 46 -104 103 0 73 85
122 151 87z"/>
</g>
</svg>
